<svg width="48" height="49" viewBox="0 0 48 49" fill="none" xmlns="http://www.w3.org/2000/svg">
<path d="M23.1032 22.46H44.3102C44.8919 22.46 45.3633 22.9314 45.3633 23.5132V44.7201C45.3633 45.3017 44.8917 45.7733 44.3102 45.7733H23.1032C22.5216 45.7733 22.05 45.3017 22.05 44.7201V23.5132C22.05 22.9316 22.5217 22.46 23.1032 22.46Z" fill="#F0F0F0" stroke="#3A312A" stroke-width="5.17094"/>
<path d="M3.63864 22.46H24.8456C25.4267 22.46 25.8984 22.9307 25.8988 23.5132C25.8988 23.5133 25.8988 23.5135 25.8988 23.5137V44.7201C25.8988 45.3017 25.4272 45.7733 24.8456 45.7733H3.63864C3.05711 45.7733 2.58547 45.3017 2.58547 44.7201V23.5132C2.58547 22.9316 3.05711 22.46 3.63864 22.46Z" fill="#54B1D4" stroke="#3A312A" stroke-width="5.17094"/>
<path d="M23.1032 2.99569H44.3102C44.8919 2.99569 45.3633 3.46753 45.3633 4.04843V25.2558C45.3633 25.8374 44.8917 26.309 44.3102 26.309H23.1032C22.5216 26.309 22.05 25.8374 22.05 25.2558V4.04886C22.05 3.46732 22.5216 2.99569 23.1032 2.99569Z" fill="#ACD210" stroke="#3A312A" stroke-width="5.17094"/>
<path d="M3.63864 2.99572H24.8456C25.4267 2.99572 25.8984 3.46686 25.8988 4.04846C25.8988 4.04864 25.8988 4.04883 25.8988 4.04902V25.2559C25.8988 25.8374 25.4272 26.309 24.8456 26.309H3.63864C3.05711 26.309 2.58547 25.8374 2.58547 25.2559V4.04889C2.58547 3.46736 3.05711 2.99572 3.63864 2.99572Z" fill="#EB6E7A" stroke="#3A312A" stroke-width="5.17094"/>
</svg>
